#!OML:ASF X:\für Bonn\!DataBase\2005_08_12_Daniel\c3d\Daniel.ASF
:FULLY-SPECIFIED
:DEGREES
151
root 0.743953 16.9024 -16.981 374.184 14.3434 6.33822
lowerback 77.6303 -6.84064 11.4705
upperback 9.25469 2.12333 -1.91334
thorax -9.50421 1.47733 -7.59832
lowerneck 4.77428 -8.48996 -0.930086
upperneck 3.29031 -11.2256 5.98693
head 0.652671 -5.54476 2.08722
rclavicle -6.36111e-015 1.1455e-014
rhumerus 234.303 -157.104 -267.854
rradius 2.9016
rwrist 32.0932
rhand -31.3024 5.01213
rfingers 7.12502
rthumb -4.57517 -24.9185
lclavicle -6.36111e-015 1.1455e-014
lhumerus -32.7356 -15.8242 91.7587
lradius 50.7837
lwrist 5.03652
lhand -10.0287 -6.05888
lfingers 7.12502
lthumb 15.956 23.3039
rfemur -46.6587 -6.70691 8.264
rtibia 51.5047
rfoot -17.3257 -4.62308
rtoes -12.1351
lfemur -49.55 -9.30183 -21.6893
ltibia 47.3655
lfoot -10.1715 -11.8784
ltoes -10.6798
152
root 0.738818 16.8595 -16.9803 374.452 14.472 6.5315
lowerback 78.2476 -6.93836 11.4341
upperback 9.03777 2.11165 -1.90416
thorax -9.69363 1.45776 -7.55683
lowerneck 4.5338 -8.48498 -0.915531
upperneck 3.40471 -11.2258 5.87196
head 0.720598 -5.53876 2.03344
rclavicle -8.5875e-014 -2.17452e-014
rhumerus 234.618 -157.019 -267.596
rradius 2.90465
rwrist 31.6999
rhand -31.6214 4.88018
rfingers 7.12502
rthumb -4.88317 -25.0436
lclavicle -8.5875e-014 -2.17452e-014
lhumerus -32.9868 -16.0183 92.0151
lradius 51.1309
lwrist 5.47367
lhand -9.92911 -6.25264
lfingers 7.12502
lthumb 16.0519 23.1025
rfemur -47.4025 -6.83259 8.08212
rtibia 52.4252
rfoot -17.6749 -4.63717
rtoes -12.332
lfemur -50.2504 -9.08926 -21.964
ltibia 48.0888
lfoot -10.3628 -12.3055
ltoes -10.7022
153
root 0.733367 16.8144 -16.9791 374.733 14.5757 6.72015
lowerback 78.7764 -7.00963 11.3807
upperback 8.87777 2.09401 -1.90968
thorax -9.82679 1.44296 -7.52564
lowerneck 4.22048 -8.48278 -0.895348
upperneck 3.51087 -11.2318 5.76849
head 0.798639 -5.53548 1.97923
rclavicle -4.13472e-014 -1.09332e-015
rhumerus 234.979 -156.923 -267.385
rradius 2.90379
rwrist 31.3223
rhand -31.9335 4.72359
rfingers 7.12502
rthumb -5.18454 -25.193
lclavicle -4.13472e-014 -1.09332e-015
lhumerus -33.1086 -16.1928 92.2155
lradius 51.3805
lwrist 5.854
lhand -9.82894 -6.60105
lfingers 7.12502
lthumb 16.1484 22.7462
rfemur -48.1826 -6.92206 7.88683
rtibia 53.3578
rfoot -17.9932 -4.65529
rtoes -12.4612
lfemur -50.9775 -8.87706 -22.2297
ltibia 48.8313
lfoot -10.5339 -12.6873
ltoes -10.591
154
root 0.728139 16.7691 -16.9773 374.985 14.6901 6.91097
lowerback 79.3043 -7.07805 11.3214
upperback 8.71946 2.07962 -1.89573
thorax -9.95708 1.42811 -7.47007
lowerneck 3.94764 -8.47355 -0.943185
upperneck 3.62044 -11.2303 5.69965
head 0.877031 -5.52971 1.94932
rclavicle -2.54444e-014 8.64713e-015
rhumerus 235.318 -156.837 -267.149
rradius 2.90673
rwrist 30.9287
rhand -32.2582 4.6133
rfingers 7.12502
rthumb -5.49801 -25.2954
lclavicle -2.54444e-014 8.64713e-015
lhumerus -33.2116 -16.3844 92.4468
lradius 51.6509
lwrist 6.30074
lhand -9.68993 -6.88933
lfingers 7.12502
lthumb 16.2822 22.447
rfemur -48.9333 -7.04806 7.70632
rtibia 54.3074
rfoot -18.332 -4.64556
rtoes -12.5194
lfemur -51.6774 -8.67603 -22.51
ltibia 49.5854
lfoot -10.7301 -13.055
ltoes -10.4853
155
root 0.72378 16.7224 -16.975 375.225 14.8095 7.08102
lowerback 79.7988 -7.15711 11.3007
upperback 8.56064 2.0757 -1.89685
thorax -10.0854 1.41885 -7.45224
lowerneck 3.70001 -8.47776 -1.01348
upperneck 3.75517 -11.2471 5.6768
head 0.964357 -5.53267 1.9383
rclavicle 6.04305e-014 4.37326e-015
rhumerus 235.597 -156.681 -266.919
rradius 2.93306
rwrist 30.5636
rhand -32.5851 4.48116
rfingers 7.12502
rthumb -5.81362 -25.4191
lclavicle 6.04305e-014 4.37326e-015
lhumerus -33.3028 -16.6256 92.6766
lradius 51.8754
lwrist 6.71885
lhand -9.54797 -7.23347
lfingers 7.12502
lthumb 16.4189 22.0917
rfemur -49.6679 -7.15908 7.53225
rtibia 55.2603
rfoot -18.685 -4.63763
rtoes -12.6562
lfemur -52.3821 -8.50227 -22.7558
ltibia 50.3664
lfoot -10.94 -13.4334
ltoes -10.3529
156
root 0.718763 16.6738 -16.9729 375.454 14.9296 7.27158
lowerback 80.2845 -7.20763 11.2289
upperback 8.40063 2.06621 -1.86889
thorax -10.2221 1.40374 -7.37882
lowerneck 3.51481 -8.46511 -1.09795
upperneck 3.8625 -11.2389 5.62283
head 1.03056 -5.525 1.92377
rclavicle -2.54444e-014 3.85642e-014
rhumerus 235.82 -156.575 -266.647
rradius 2.99126
rwrist 30.2463
rhand -32.9345 4.38926
rfingers 7.12502
rthumb -6.15098 -25.5014
lclavicle -2.54444e-014 3.85642e-014
lhumerus -33.3755 -16.773 92.9179
lradius 52.0666
lwrist 7.11189
lhand -9.42724 -7.57124
lfingers 7.12502
lthumb 16.5351 21.7442
rfemur -50.3963 -7.29914 7.35437
rtibia 56.2284
rfoot -19.0302 -4.62837
rtoes -12.8695
lfemur -53.08 -8.31446 -23.0316
ltibia 51.1663
lfoot -11.1601 -13.8126
ltoes -10.2417
157
root 0.714074 16.6213 -16.9693 375.638 15.0446 7.44098
lowerback 80.7431 -7.27046 11.1778
upperback 8.2718 2.0501 -1.86515
thorax -10.3218 1.39262 -7.33931
lowerneck 3.36423 -8.45315 -1.14527
upperneck 3.92453 -11.2284 5.58065
head 1.07514 -5.51737 1.9097
rclavicle 0 1.61016e-014
rhumerus 236.057 -156.446 -266.419
rradius 3.03374
rwrist 29.8888
rhand -33.3213 4.31416
rfingers 7.12502
rthumb -6.52439 -25.5653
lclavicle 0 1.61016e-014
lhumerus -33.401 -16.966 93.1248
lradius 52.2836
lwrist 7.52876
lhand -9.3131 -7.75819
lfingers 7.12502
lthumb 16.645 21.5481
rfemur -51.0894 -7.44748 7.19817
rtibia 57.202
rfoot -19.3725 -4.58989
rtoes -13.0632
lfemur -53.7498 -8.16088 -23.2766
ltibia 51.9912
lfoot -11.3981 -14.1467
ltoes -10.206
158
root 0.709297 16.5687 -16.966 375.766 15.1658 7.63178
lowerback 81.1918 -7.34987 11.1431
upperback 8.18535 2.02836 -1.87125
thorax -10.3688 1.38732 -7.31429
lowerneck 3.18883 -8.44989 -1.18464
upperneck 3.97338 -11.23 5.57238
head 1.12201 -5.51568 1.90411
rclavicle -8.90555e-014 1.45113e-014
rhumerus 236.308 -156.253 -266.198
rradius 3.08348
rwrist 29.6399
rhand -33.7476 4.221
rfingers 7.12502
rthumb -6.93588 -25.6454
lclavicle -8.90555e-014 1.45113e-014
lhumerus -33.3526 -17.181 93.3029
lradius 52.4711
lwrist 7.89683
lhand -9.19201 -7.92445
lfingers 7.12502
lthumb 16.7616 21.372
rfemur -51.7127 -7.59611 7.00631
rtibia 58.1832
rfoot -19.7271 -4.5109
rtoes -13.0878
lfemur -54.3524 -7.97797 -23.5717
ltibia 52.8178
lfoot -11.5861 -14.5315
ltoes -9.92002
159
root 0.705002 16.5144 -16.9622 375.865 15.2926 7.8204
lowerback 81.6526 -7.40808 11.08
upperback 8.07074 2.01496 -1.84534
thorax -10.45 1.37823 -7.24421
lowerneck 3.12439 -8.44462 -1.2497
upperneck 4.00949 -11.2252 5.52103
head 1.14469 -5.51265 1.89476
rclavicle 3.18055e-014 2.80286e-014
rhumerus 236.479 -156.103 -265.925
rradius 3.13346
rwrist 29.3908
rhand -34.1132 4.19166
rfingers 7.12502
rthumb -7.28884 -25.6628
lclavicle 3.18055e-014 2.80286e-014
lhumerus -33.3802 -17.336 93.5242
lradius 52.6996
lwrist 8.29846
lhand -9.06313 -8.01178
lfingers 7.12502
lthumb 16.8857 21.2741
rfemur -52.2924 -7.74151 6.81864
rtibia 59.158
rfoot -20.0883 -4.46596
rtoes -13.3605
lfemur -54.9243 -7.79241 -23.8731
ltibia 53.6541
lfoot -11.8178 -14.9111
ltoes -9.72534
160
root 0.701043 16.4601 -16.9593 375.944 15.43 8.02265
lowerback 82.0804 -7.48386 11.02
upperback 7.99839 1.97769 -1.8401
thorax -10.4852 1.36773 -7.19007
lowerneck 2.9916 -8.42619 -1.25597
upperneck 4.05456 -11.2039 5.48766
head 1.17867 -5.49984 1.87825
rclavicle -3.18055e-015 2.68359e-014
rhumerus 236.723 -155.941 -265.712
rradius 3.15844
rwrist 29.1585
rhand -34.5615 4.15474
rfingers 7.12502
rthumb -7.72159 -25.6843
lclavicle -3.18055e-015 2.68359e-014
lhumerus -33.3309 -17.5273 93.6851
lradius 52.9401
lwrist 8.7542
lhand -8.99467 -7.96417
lfingers 7.12502
lthumb 16.9516 21.3161
rfemur -52.837 -7.89454 6.60446
rtibia 60.1223
rfoot -20.4645 -4.40119
rtoes -13.4924
lfemur -55.4686 -7.62756 -24.1895
ltibia 54.4806
lfoot -12.0398 -15.2818
ltoes -9.51767
